<svg width="1024" height="1024" viewBox="0 0 1024 1024" fill="none" xmlns="http://www.w3.org/2000/svg">
<style>
  path { fill: #020617; }
  @media (prefers-color-scheme: dark) {
    path { fill: #E2E8F0; }
  }
</style>
<path fill-rule="evenodd" clip-rule="evenodd" d="M312.672 0H711.328C820.774 0 875.496 0 917.299 21.2995C954.069 40.035 983.965 69.9305 1002.7 106.701C1024 148.504 1024 203.226 1024 312.672V711.328C1024 820.774 1024 875.496 1002.7 917.299C983.965 954.069 954.069 983.965 917.299 1002.7C875.496 1024 820.774 1024 711.328 1024H312.672C203.226 1024 148.504 1024 106.701 1002.7C69.9305 983.965 40.035 954.069 21.2995 917.299C0 875.496 0 820.774 0 711.328V312.672C0 203.226 0 148.504 21.2995 106.701C40.035 69.9305 69.9305 40.035 106.701 21.2995C148.504 0 203.226 0 312.672 0ZM822 273.279L684.748 151L547.496 273.279V312.459L595.276 304.665V546.709L419.433 299.478C323.338 291.405 222 273.279 222 273.279V833C222 833 310.93 817.093 401.172 808.445V541.945L577.85 806.871C673.696 814.978 774.448 833 774.448 833V304.702L822 312.459V273.279Z"/>
</svg>
